# xmcd CD database file
#
# Track frame offsets:
#	150
#	17803
#	35087
#	55357
#	70404
#	87465
#	105950
#	120586
#	133151
#	142687
#	157172
#	180961
#	195040
#	206504
#	219582
#	231292
#	245628
#	264877
#
# Disc length: 3869 seconds
#
# Revision: 0
# Processed by: cddbd v1.5.2PL0 Copyright (c) Steve Scherf et al.
# Submitted via: CDex 1.51
#
DISCID=fa0f1b12
DTITLE=Acoustic Blues Brothers - Pets And Frogs
DYEAR=2000
DGENRE=Blues
TTITLE0=Pets And Frogs
TTITLE1=Stone, Ice And Iron
TTITLE2=Never Ending Blues
TTITLE3=Who's The Fool
TTITLE4=Porcito
TTITLE5=Treat Everybody Right
TTITLE6=Born In The Fifties
TTITLE7=Runnin' Out Of Tears
TTITLE8=These Days
TTITLE9=Blues Harp Doctor
TTITLE10=Women And The Universe
TTITLE11=Armadillo
TTITLE12=Bite You Twice
TTITLE13=Planet Of War
TTITLE14=I Don't Need
TTITLE15=You Gotta Move
TTITLE16=Buccaneer's Party
TTITLE17=Crazy Christmas Time
EXTD=YEAR: 2000
EXTT0=
EXTT1=
EXTT2=
EXTT3=
EXTT4=
EXTT5=
EXTT6=
EXTT7=
EXTT8=
EXTT9=
EXTT10=
EXTT11=
EXTT12=
EXTT13=
EXTT14=
EXTT15=
EXTT16=
EXTT17=
PLAYORDER=
